# xmcd CD database file
#
# Track frame offsets:
#	182
#	15622
#	37152
#	59600
#	79637
#	95540
#	117522
#	140707
#	166657
#	187030
#
# Disc length: 2802 seconds
#
# Revision: 0
# Processed by: cddbd v1.5.1PL0 Copyright (c) Steve Scherf et al.
# Submitted via: CDex 1.51
#
DISCID=890af00a
DTITLE=The Dalton Gang - Rhythnms
DYEAR=1900
DGENRE=Jazz
TTITLE0=The Optimist
TTITLE1=Fatso
TTITLE2=The Powers That Be Flat
TTITLE3=New York State of Mind
TTITLE4=Chill That Thrill
TTITLE5=Samba Del Viento
TTITLE6=Free J.B.
TTITLE7=A Night in Terneuzen
TTITLE8=Where Were You?
TTITLE9=Fringe Benefit
EXTD=
EXTT0=
EXTT1=
EXTT2=
EXTT3=
EXTT4=
EXTT5=
EXTT6=
EXTT7=
EXTT8=
EXTT9=
PLAYORDER=
